<svg width="20" height="20" viewBox="0 0 20 20" fill="none" xmlns="http://www.w3.org/2000/svg">
<path fill-rule="evenodd" clip-rule="evenodd" d="M10 0C4.477 0 0 4.477 0 10C0 15.523 4.477 20 10 20C15.523 20 20 15.523 20 10C20 4.477 15.523 0 10 0ZM10 7C9.73478 7 9.48043 7.10536 9.29289 7.29289C9.10536 7.48043 9 7.73478 9 8C9 8.26522 8.89464 8.51957 8.70711 8.70711C8.51957 8.89464 8.26522 9 8 9C7.73478 9 7.48043 8.89464 7.29289 8.70711C7.10536 8.51957 7 8.26522 7 8C7.00021 7.47052 7.14055 6.95053 7.40676 6.49285C7.67297 6.03516 8.05558 5.65608 8.51571 5.39411C8.97583 5.13215 9.4971 4.99662 10.0266 5.00131C10.556 5.006 11.0748 5.15073 11.5302 5.4208C11.9856 5.69087 12.3615 6.07667 12.6195 6.53899C12.8776 7.00132 13.0087 7.52372 12.9996 8.05311C12.9904 8.58251 12.8413 9.10006 12.5674 9.55318C12.2934 10.0063 11.9045 10.3789 11.44 10.633C11.2968 10.7063 11.1672 10.8038 11.057 10.921C11.0333 10.9459 11.014 10.9746 11 11.006V11.5C11 11.7652 10.8946 12.0196 10.7071 12.2071C10.5196 12.3946 10.2652 12.5 10 12.5C9.73478 12.5 9.48043 12.3946 9.29289 12.2071C9.10536 12.0196 9 11.7652 9 11.5V11C9 10.42 9.253 9.953 9.539 9.62C9.82 9.29 10.169 9.048 10.479 8.878C10.6741 8.77161 10.8283 8.60325 10.9171 8.3995C11.0059 8.19574 11.0242 7.96822 10.9693 7.75285C10.9144 7.53749 10.7893 7.34656 10.6137 7.21023C10.4382 7.07389 10.2223 6.99992 10 7ZM10.999 11.011V11.007V11.012V11.011ZM10 13C9.73478 13 9.48043 13.1054 9.29289 13.2929C9.10536 13.4804 9 13.7348 9 14C9 14.2652 9.10536 14.5196 9.29289 14.7071C9.48043 14.8946 9.73478 15 10 15H10.01C10.2752 15 10.5296 14.8946 10.7171 14.7071C10.9046 14.5196 11.01 14.2652 11.01 14C11.01 13.7348 10.9046 13.4804 10.7171 13.2929C10.5296 13.1054 10.2752 13 10.01 13H10Z" fill="#1A1B1F"/>
</svg>
