<svg width="50" height="50" viewBox="0 0 50 50" fill="none" xmlns="http://www.w3.org/2000/svg">
<path d="M25 22.5C24.337 22.5 23.7011 22.7634 23.2322 23.2322C22.7634 23.7011 22.5 24.337 22.5 25C22.5 25.663 22.7634 26.2989 23.2322 26.7678C23.7011 27.2366 24.337 27.5 25 27.5C25.663 27.5 26.2989 27.2366 26.7678 26.7678C27.2366 26.2989 27.5 25.663 27.5 25C27.5 24.337 27.2366 23.7011 26.7678 23.2322C26.2989 22.7634 25.663 22.5 25 22.5ZM25 36.25C18.75 36.25 13.75 31.25 13.75 25C13.75 18.75 18.75 13.75 25 13.75C31.25 13.75 36.25 18.75 36.25 25C36.25 31.25 31.25 36.25 25 36.25ZM25 0C21.717 0 18.4661 0.646644 15.4329 1.90301C12.3998 3.15938 9.6438 5.00087 7.32233 7.32233C2.63392 12.0107 0 18.3696 0 25C0 31.6304 2.63392 37.9893 7.32233 42.6777C9.6438 44.9991 12.3998 46.8406 15.4329 48.097C18.4661 49.3534 21.717 50 25 50C31.6304 50 37.9893 47.3661 42.6777 42.6777C47.3661 37.9893 50 31.6304 50 25C50 21.717 49.3534 18.4661 48.097 15.4329C46.8406 12.3998 44.9991 9.6438 42.6777 7.32233C40.3562 5.00087 37.6002 3.15938 34.5671 1.90301C31.5339 0.646644 28.283 0 25 0Z" fill="#1A1B1F" fill-opacity="0.9"/>
</svg>
