<svg width="20" height="20" viewBox="0 0 20 20" fill="none" xmlns="http://www.w3.org/2000/svg">
<path d="M14 7V5H10V10.5C9.58 10.19 9.07 10 8.5 10C7.83696 10 7.20107 10.2634 6.73223 10.7322C6.26339 11.2011 6 11.837 6 12.5C6 13.163 6.26339 13.7989 6.73223 14.2678C7.20107 14.7366 7.83696 15 8.5 15C9.16304 15 9.79893 14.7366 10.2678 14.2678C10.7366 13.7989 11 13.163 11 12.5V7H14ZM10 0C11.3132 0 12.6136 0.258658 13.8268 0.761205C15.0401 1.26375 16.1425 2.00035 17.0711 2.92893C17.9997 3.85752 18.7362 4.95991 19.2388 6.17317C19.7413 7.38642 20 8.68678 20 10C20 12.6522 18.9464 15.1957 17.0711 17.0711C15.1957 18.9464 12.6522 20 10 20C8.68678 20 7.38642 19.7413 6.17317 19.2388C4.95991 18.7362 3.85752 17.9997 2.92893 17.0711C1.05357 15.1957 0 12.6522 0 10C0 7.34784 1.05357 4.8043 2.92893 2.92893C4.8043 1.05357 7.34784 0 10 0Z" fill="#1A1B1F"/>
</svg>
